<?xml version="1.0" standalone="no"?>
<!DOCTYPE svg PUBLIC "-//W3C//DTD SVG 20010904//EN"
 "http://www.w3.org/TR/2001/REC-SVG-20010904/DTD/svg10.dtd">
<svg version="1.0" xmlns="http://www.w3.org/2000/svg"
 width="200.000000pt" height="200.000000pt" viewBox="0 0 200.000000 200.000000"
 preserveAspectRatio="xMidYMid meet">
<metadata>
Created by potrace 1.11, written by Peter Selinger 2001-2013
</metadata>
<g transform="translate(0.000000,200.000000) scale(0.100000,-0.100000)"
fill="#000000" stroke="none">
<path d="M1195 1555 c-82 -13 -183 -24 -222 -25 -67 0 -73 -2 -73 -21 0 -29
18 -60 48 -86 25 -21 26 -25 13 -45 -61 -97 -247 -434 -316 -573 -133 -268
-164 -395 -114 -459 11 -14 26 -26 32 -26 7 0 61 101 121 224 l108 224 77 16
c113 23 200 36 254 36 35 0 49 4 54 17 9 23 -16 63 -57 91 -33 22 -42 24 -132
19 -54 -3 -98 -3 -98 1 0 7 96 180 181 323 l68 116 123 23 c68 13 164 26 215
29 50 3 95 10 99 14 13 13 -27 76 -64 99 -49 30 -139 31 -317 3z"/>
</g>
</svg>
