<?xml version="1.0" standalone="no"?>
<!DOCTYPE svg PUBLIC "-//W3C//DTD SVG 20010904//EN"
 "http://www.w3.org/TR/2001/REC-SVG-20010904/DTD/svg10.dtd">
<svg version="1.0" xmlns="http://www.w3.org/2000/svg"
 width="700.000000pt" height="700.000000pt" viewBox="0 0 700.000000 700.000000"
 preserveAspectRatio="xMidYMid meet">
<metadata>
Created by potrace 1.11, written by Peter Selinger 2001-2013
</metadata>
<g transform="translate(0.000000,700.000000) scale(0.100000,-0.100000)"
fill="#000000" stroke="none">
<path d="M4015 5521 c-76 -35 -104 -92 -104 -211 0 -120 28 -177 104 -211 36
-16 70 -18 264 -18 123 0 227 -3 232 -8 5 -5 8 -692 7 -1579 l-3 -1569 -240
-5 c-214 -4 -244 -7 -270 -24 -72 -46 -92 -89 -94 -202 -3 -118 24 -176 101
-215 35 -18 58 -19 320 -16 292 3 300 4 383 49 23 12 35 14 50 6 84 -47 111
-51 390 -56 189 -2 281 0 309 8 50 15 102 68 116 118 15 57 7 190 -14 234 -19
39 -76 85 -116 92 -14 2 -125 5 -247 5 l-223 1 0 1580 c0 1257 3 1580 13 1580
6 1 112 1 233 1 254 0 283 7 332 82 25 38 27 48 27 147 0 100 -2 109 -28 149
-51 76 -75 82 -370 81 -266 -1 -326 -9 -408 -50 -33 -17 -38 -18 -59 -3 -12 9
-54 24 -93 34 -60 16 -109 19 -321 19 -222 0 -256 -3 -291 -19z"/>
<path d="M101 4797 c-26 -12 -53 -36 -69 -60 l-27 -41 -2 -1191 -3 -1191 29
-45 c18 -29 44 -53 69 -66 41 -20 53 -20 2062 -20 1482 0 2020 3 2021 11 6 65
2 439 -5 444 -5 3 -843 5 -1863 5 l-1853 0 0 857 0 857 1853 0 c1020 0 1858 2
1863 5 7 5 11 372 5 444 -1 8 -558 11 -2020 11 -1995 0 -2018 0 -2060 -20z"/>
<path d="M5319 4816 c-1 -1 -2 -103 -3 -228 -1 -147 2 -228 9 -229 5 0 281 -1
613 -1 l602 -1 0 -857 0 -857 -602 -1 c-332 0 -607 -1 -613 -1 -6 -1 -10 -84
-10 -229 l0 -227 765 -1 c868 -1 829 -5 885 75 l30 43 0 1196 0 1197 -23 37
c-13 20 -40 47 -60 60 l-37 23 -777 1 c-428 1 -779 1 -779 0z"/>
</g>
</svg>
